<svg height="52" width="52" viewBox="0 0 52 52" fill="none" xmlns="http://www.w3.org/2000/svg">
    <path
        d="M21.9978 12.037C22.1081 12.2616 22.181 12.5021 22.2137 12.7494L22.8169 21.7192L23.1164 26.2277C23.1195 26.6913 23.1922 27.152 23.3323 27.5948C23.694 28.4539 24.564 28.9999 25.5106 28.9618L39.9347 28.0184C40.5593 28.0081 41.1625 28.2417 41.6115 28.6678C41.9857 29.0229 42.2273 29.4874 42.3034 29.987L42.3289 30.2904C41.732 38.5556 35.6617 45.4494 27.4136 47.229C19.1655 49.0086 10.7075 45.2493 6.6317 37.9923C5.45667 35.884 4.72274 33.5666 4.47299 31.1761C4.36866 30.4685 4.32272 29.7538 4.33562 29.0389C4.32274 20.1776 10.633 12.5168 19.4662 10.6699C20.5293 10.5044 21.5716 11.0672 21.9978 12.037Z"
        fill="#97A5EB" />
    <path opacity="0.4"
        d="M27.8851 4.33512C37.7648 4.58647 46.0684 11.6909 47.6667 21.26L47.6515 21.3306L47.6078 21.4333L47.6139 21.7151C47.5913 22.0886 47.4471 22.4478 47.1987 22.7381C46.9398 23.0404 46.5862 23.2462 46.1968 23.3261L45.9594 23.3587L29.3177 24.437C28.7641 24.4916 28.213 24.3131 27.8013 23.9459C27.4583 23.6399 27.239 23.2269 27.177 22.7818L26.06 6.16431C26.0406 6.10812 26.0406 6.04721 26.06 5.99102C26.0753 5.53297 26.2769 5.1 26.6198 4.78884C26.9628 4.47769 27.4185 4.31428 27.8851 4.33512Z"
        fill="#FFCC91" />
</svg>